<?xml version="1.0"?>
<svg width="500" height="500" xmlns="http://www.w3.org/2000/svg" xmlns:svg="http://www.w3.org/2000/svg" xmlns:xlink="http://www.w3.org/1999/xlink" preserveAspectRatio="xMidYMid" version="1.1">
 <!-- Created with SVG-edit - https://github.com/SVG-Edit/svgedit-->
 <defs>
  <symbol height="209px" id="svg_27" preserveAspectRatio="xMidYMid" version="1.1" viewBox="0 0 512 209" width="512px" xmlns="http://www.w3.org/2000/svg" xmlns:xlink="http://www.w3.org/1999/xlink">
   <defs>
    <linearGradient id="svg_26" x1="23.9620816%" x2="68.7842661%" y1="46.0431549%" y2="55.6019873%">
     <stop offset="0%" stop-color="#919191"/>
     <stop offset="100%" stop-color="#FFFFFF"/>
    </linearGradient>
    <linearGradient id="svg_25" x1="26.4273967%" x2="67.1321895%" y1="42.3814821%" y2="51.9064126%">
     <stop offset="0%" stop-color="#990000"/>
     <stop offset="100%" stop-color="#E80000"/>
    </linearGradient>
    <linearGradient id="svg_24" x1="49.9999984%" x2="49.9999984%" y1="99.8215962%" y2="-0.0435244247%">
     <stop offset="0%" stop-color="#1A1A1A"/>
     <stop offset="40.26%" stop-color="#4A4A4C"/>
     <stop offset="100%" stop-color="#333333"/>
    </linearGradient>
   </defs>
   <g>
    <g>
     <g transform="translate(394.230019, 0.000000)">
      <path d="m65.07,4.29c-0.1,0.4 -0.1,0.8 0,1.2c0,0 1.3,8.48 -0.2,12.28l-61.48,159.98c-4.39,11.78 1.5,24.85 13.28,29.35c11.77,4.49 24.85,-1.3 29.54,-12.98l0,0l61.48,-159.99c1.2,-3.09 8.08,-9.18 8.08,-9.18c0.3,-0.3 0.6,-0.6 0.8,-0.9l0,-0.1c0,-0.1 0.1,-0.1 0.1,-0.2c1.6,-4.09 -8.68,-11.87 -22.85,-17.36c-14.18,-5.49 -27.05,-6.59 -28.65,-2.4c0,0 -0.1,0.1 -0.1,0.3l0,0l0,0z" fill="#000000" opacity="0.1"/>
      <path d="m63.28,2.89c-0.1,0.4 -0.1,0.8 0,1.2c0,0 1.29,8.49 -0.2,12.28l-61.48,159.99c-4.39,11.77 1.49,24.85 13.27,29.34c11.78,4.49 24.85,-1.3 29.54,-12.98l0,0l61.48,-159.98c1.2,-3.1 8.09,-9.19 8.09,-9.19c0.3,-0.3 0.6,-0.59 0.8,-0.89l0,-0.1c0,-0.1 0.1,-0.1 0.1,-0.2c1.59,-4.1 -8.69,-11.88 -22.86,-17.37c-14.17,-5.49 -27.05,-6.59 -28.64,-2.4c0,0.1 0,0.2 -0.1,0.3l0,0l0,0z" fill="url(#svg_26)"/>
      <path d="m82.64,75.25l-44.41,115.38c-3.3,8.28 -12.78,12.57 -21.26,9.28c-8.49,-3.29 -12.98,-12.98 -9.88,-21.26l0,0l28.34,-73.75c0,0 3.49,-5.69 10.48,-9.79c6.99,-4.09 12.68,-3.19 20.36,-6.58c7.79,-3.4 16.37,-13.28 16.37,-13.28l0,0z" fill="url(#svg_25)"/>
      <path d="m104.18,19.02c0.88,-2.31 -5.49,-6.92 -14.23,-10.29c-8.74,-3.38 -16.54,-4.24 -17.42,-1.93c-0.89,2.31 5.48,6.91 14.22,10.29c8.74,3.37 16.54,4.24 17.43,1.93l0,0z" fill="#333333"/>
      <path d="m62.86,4.08c0,0 1.29,8.46 -0.2,12.24l-61.07,159.54c-4.37,11.74 1.48,24.78 13.18,29.26c1.99,0.79 4.07,1.29 6.15,1.39c-7.83,-5.97 -11.2,-16.52 -7.63,-26.27l0,0l59.88,-156.35c0,0 -8.23,-7.67 -10.31,-19.81l0,0z" fill="#FFFFFF" opacity="0.3"/>
      <g fill="#FFFFFF" opacity="0.5" transform="translate(25.779661, 104.500000)">
       <ellipse cx="17.45" cy="2.49" rx="1.78" ry="1.79"/>
       <ellipse cx="29.05" cy="15.33" rx="2.68" ry="2.69"/>
       <ellipse cx="11.3" cy="30.65" rx="5.06" ry="5.08"/>
       <ellipse cx="3.17" cy="40.01" rx="2.68" ry="2.69"/>
       <ellipse cx="13.78" cy="59.91" rx="1.78" ry="1.79"/>
      </g>
     </g>
     <path d="m120.46,97.14c2.7,2.18 7.59,0.89 10.88,-2.69c3.5,-3.78 4,-8.66 1.3,-10.85c-2.69,-2.19 -7.58,-0.9 -10.88,2.89c-3.49,3.78 -4.09,8.56 -1.3,10.65l0,0zm-8.08,7.06c-0.7,0 -2,1.3 -0.9,1.79c1.5,0.5 2.2,1.79 2.2,3.59c-1.3,7.46 -10.58,15.92 -14.17,18.81c-0.9,0.89 0.39,2.88 1.29,2.19c2,-1.6 6.19,-4.88 9.58,-9.26c-5.58,12.44 -16.56,28.56 -20.76,34.24c-16.36,22.59 -41.21,43.39 -58.28,43.39c-13.67,0 -25.25,-9.26 -27.75,-22.79c-0.2,-1.5 -2.19,-1.79 -1.79,0.2c3.09,18.61 17.46,25.87 34.83,25.87c19.06,0 41.42,-13.73 53.79,-27.86c19.96,-22.8 32.84,-49.07 29.45,-63.9c-1.4,-5.47 -5.29,-6.37 -7.49,-6.27l0,0zm122.66,49.66c5.29,-1.29 9.58,-4.18 9.58,-8.75c0,-0.5 -0.9,-0.5 -0.9,0c0,2.68 -3.09,4.97 -6.58,5.47c-8.19,1.29 -24.36,-8.26 -31.94,-18.11c8.18,3.08 24.85,-1.4 32.74,-7.07c7.28,-5.27 10.18,-11.05 10.67,-15.72c0.9,-7.77 -7.58,-12.35 -19.46,-7.77c-7.58,3.09 -16.67,9.76 -26.15,22.3c9.98,-16.43 29.65,-43.3 48.91,-60.42c23.45,-20.8 37.03,-16.81 15.97,5.28c-8.69,9.06 -25.05,20.8 -36.33,25.88c-3.5,1.49 -1.8,3.48 0.7,2.38c11.97,-5.27 27.94,-16.12 37.62,-25.18c28.55,-27.36 4.69,-47.97 -26.84,-19c-21.46,19.7 -35.44,40.3 -47.61,67.07c-4.19,5.08 -7.29,9.26 -11.08,12.45c-0.5,0.39 -0.8,0.79 -1.1,1.19c-10.48,8.96 -26.95,21.1 -37.23,21.2c-7.28,0.2 -10.37,-5.28 -9.08,-12.34c2,-11.05 13.48,-24.09 23.26,-28.57c12.67,-5.77 20.16,5.48 3.49,14.43c-6.39,3.29 -13.97,5.08 -17.07,5.08c-3.59,0 -3.29,1.49 -0.2,1.59c5.09,0.2 13.28,-1.99 18.67,-4.48c17.06,-8.16 18.16,-23.38 -0.4,-23.88c-20.16,-0.7 -44.32,16.42 -44.12,38.02c0.2,9.75 7.99,15.02 18.67,15.02c17.86,-0.19 33.73,-13.73 46.81,-25.67c1.89,-1.59 3.69,-3.29 5.49,-5.08c-4.6,11.55 -6.89,22.3 -5.79,30.26c0.7,5.77 3.99,8.46 6.58,10.65c0.5,0.39 1.6,0 0.9,-1.1c-3.79,-4.48 -2.69,-17.91 2.5,-30.95c4.39,8.76 21.46,19.8 39.32,15.82l0,0zm-21.46,-37.72c20.86,-18.61 29.05,-1.99 15.77,8.17c-6.88,5.27 -20.56,9.25 -24.85,6.66l-0.9,-0.49c-0.5,-0.9 -1.1,-1.8 -1.49,-2.69c3.49,-4.28 7.48,-8.06 11.47,-11.65l0,0zm115.98,-21.19c8.38,0.89 4.89,-9.26 -3.6,-6.67c-3.79,1.09 -7.48,8.36 -10.18,14.63c-8.38,12.44 -22.35,29.46 -32.13,38.41c-8.69,7.47 -16.67,9.46 -6.89,-4.47c3.99,-5.58 9.08,-11.55 11.98,-17.52c6.88,-15.03 -7.79,-21.7 -19.67,-12.64c-6.88,5.27 -16.16,16.12 -23.45,22.09c-2,1.6 -1.5,3.98 0.5,2.39c5.79,-4.68 15.97,-15.42 24.75,-21.69c7.29,-5.58 10.18,-1.99 5.99,2.68c-5.79,6.67 -15.97,18.32 -18.56,25.68c-3.6,11.05 0.69,15.92 7.98,15.92c9.98,0 24.85,-15.52 34.83,-27.86c3.3,-4.18 6.89,-9.06 9.98,-13.74c-8.68,16.82 -17.76,33.84 -29.04,49.27c-15.97,21.69 -35.93,38.02 -54.89,38.02c-13.68,0 -25.45,-9.26 -27.95,-22.8c-0.2,-1.49 -2,-1.79 -1.8,0.2c3.1,18.61 17.47,25.88 34.84,25.88c19.06,0 37.42,-11.05 50.3,-24.58c25.95,-27.37 29.04,-58.12 37.03,-75.34c3.79,-7.86 7.18,-8.16 9.98,-7.86l0,0zm105.59,-26.28c3.79,-6.47 3.59,-11.54 -5.29,-11.54c-6.69,0.2 -18.86,4.87 -24.55,9.25c-1.3,1.3 -0.7,1.99 0.9,1.3c1.09,-0.4 2.39,-1.1 3.59,-1.6c6.39,-3.48 3.79,3.79 2.39,6.47c-7.58,13.24 -21.05,31.85 -28.14,41.11c-3.39,4.57 -7.19,9.05 -10.88,12.93c-6.79,6.47 -20.26,17.92 -30.54,21.7c-33.03,12.34 9.08,-43.79 12.58,-48.37c7.78,-9.75 25.25,-26.77 30.54,-35.33c3.79,-6.47 3.59,-11.54 -5.29,-11.54c-6.69,0.2 -18.87,4.87 -24.56,9.25c-1.29,1.3 -0.69,1.99 0.9,1.3c1.1,-0.4 2.4,-1.1 3.6,-1.6c6.38,-3.48 3.79,3.79 2.39,6.47c-7.58,13.24 -21.06,31.85 -28.14,41.11c-5.79,7.76 -12.88,15.52 -18.37,19.9c-2.19,1.79 -0.9,3.48 1.3,1.99c2,-1.29 4.89,-4.18 8.18,-7.56c-5.98,11.94 -10.88,28.76 4.89,30.75c13.48,1.79 29.45,-11.84 39.83,-21.99c1.09,-1.1 2.39,-2.39 3.69,-3.69c0.3,-0.3 0.6,-0.59 0.9,-0.89c-5.99,11.94 -10.88,28.76 4.89,30.75c17.26,2.39 38.72,-20.8 47.01,-29.36c1.59,-1.59 1.09,-4.38 -1.6,-1.59c-4.89,5.07 -21.46,20.1 -33.44,24.58c-33.03,12.34 9.09,-43.79 12.58,-48.37c7.88,-9.95 25.35,-26.97 30.64,-35.43l0,0z" fill="#000000" opacity="0.1"/>
     <path d="m118.67,95.44c2.69,2.19 7.58,0.9 10.88,-2.68c3.49,-3.79 3.99,-8.66 1.29,-10.85c-2.69,-2.19 -7.58,-0.9 -10.87,2.88c-3.5,3.79 -4,8.46 -1.3,10.65l0,0zm-7.99,7.07c-0.69,0 -1.99,1.29 -0.89,1.79c1.49,0.5 2.19,1.79 2.19,3.58c-1.3,7.47 -10.58,15.93 -14.17,18.81c-0.9,0.9 0.4,2.89 1.3,2.19c1.99,-1.59 6.18,-4.87 9.58,-9.25c-5.59,12.44 -16.57,28.56 -20.76,34.23c-16.37,22.6 -41.22,43.4 -58.29,43.4c-13.67,0 -25.25,-9.26 -27.74,-22.79c-0.2,-1.5 -2.2,-1.8 -1.8,0.19c3.09,18.62 17.47,25.88 34.83,25.88c19.06,0 41.42,-13.73 53.8,-27.87c19.96,-22.79 32.83,-49.06 29.44,-63.89c-1.5,-5.57 -5.29,-6.47 -7.49,-6.27l0,0zm122.56,49.66c5.29,-1.29 9.59,-4.18 9.59,-8.76c0,-0.49 -0.9,-0.49 -0.9,0c0,2.69 -3.1,4.98 -6.59,5.48c-8.18,1.29 -24.35,-8.26 -31.94,-18.12c8.19,3.09 24.85,-1.39 32.74,-7.06c7.28,-5.28 10.18,-11.05 10.68,-15.73c0.9,-7.76 -7.59,-12.34 -19.46,-7.76c-7.59,3.09 -16.67,9.75 -26.15,22.29c9.98,-16.42 29.64,-43.29 48.9,-60.41c23.46,-20.8 37.03,-16.82 15.97,5.28c-8.68,9.05 -25.05,20.8 -36.33,25.87c-3.49,1.5 -1.8,3.49 0.7,2.39c11.98,-5.27 27.95,-16.12 37.63,-25.18c28.54,-27.37 4.69,-47.97 -26.85,-19.01c-21.46,19.61 -35.43,40.31 -47.61,67.08c-4.19,5.08 -7.28,9.26 -11.08,12.44c-0.5,0.4 -0.79,0.8 -1.09,1.2c-10.48,8.95 -26.95,21.1 -37.23,21.2c-7.29,0.2 -10.38,-5.28 -9.08,-12.34c1.99,-11.05 13.47,-24.09 23.25,-28.57c12.68,-5.77 20.16,5.48 3.49,14.43c-6.38,3.29 -13.97,5.08 -17.06,5.08c-3.6,0 -3.3,1.49 -0.2,1.59c5.09,0.2 13.27,-1.99 18.66,-4.48c17.07,-8.16 18.17,-23.39 -0.4,-23.88c-20.16,-0.7 -44.31,16.42 -44.11,38.01c0.2,9.76 7.98,15.03 18.66,15.03c17.87,-0.2 33.74,-13.73 46.81,-25.67c1.9,-1.6 3.69,-3.29 5.49,-5.08c-4.59,11.54 -6.89,22.29 -5.79,30.26c0.7,5.77 3.99,8.45 6.59,10.64c0.5,0.4 1.59,0 0.9,-1.09c-3.8,-4.48 -2.7,-17.91 2.49,-30.95c4.49,8.76 21.56,19.8 39.32,15.82l0,0zm-21.45,-37.82c20.86,-18.61 29.04,-1.99 15.77,8.16c-6.89,5.28 -20.56,9.26 -24.86,6.67l-0.89,-0.5c-0.5,-0.89 -1.1,-1.79 -1.5,-2.68c3.49,-4.18 7.48,-8.06 11.48,-11.65l0,0zm115.97,-21.1c8.38,0.9 4.89,-9.25 -3.59,-6.66c-3.8,1.09 -7.49,8.36 -10.18,14.63c-8.39,12.44 -22.36,29.45 -32.14,38.41c-8.68,7.47 -16.67,9.46 -6.89,-4.48c4,-5.57 9.09,-11.54 11.98,-17.51c6.89,-15.03 -7.79,-21.7 -19.66,-12.64c-6.89,5.27 -16.17,16.12 -23.46,22.09c-1.99,1.59 -1.49,3.98 0.5,2.39c5.79,-4.68 15.97,-15.43 24.75,-21.7c7.29,-5.57 10.18,-1.99 5.99,2.69c-5.79,6.67 -15.97,18.31 -18.56,25.68c-3.59,11.05 0.7,15.92 7.98,15.92c9.98,0 24.85,-15.52 34.84,-27.86c3.29,-4.18 6.88,-9.06 9.98,-13.74c-8.69,16.82 -17.77,33.84 -29.05,49.27c-15.97,21.69 -35.93,38.01 -54.89,38.01c-13.67,0 -25.45,-9.25 -27.95,-22.79c-0.2,-1.49 -1.99,-1.79 -1.79,0.2c3.09,18.61 17.46,25.88 34.83,25.88c19.06,0 37.43,-11.05 50.3,-24.58c25.95,-27.37 29.04,-58.13 37.03,-75.34c3.79,-7.87 7.29,-8.26 9.98,-7.87l0,0zm105.59,-26.37c3.8,-6.47 3.6,-11.54 -5.29,-11.54c-6.68,0.19 -18.86,4.87 -24.55,9.25c-1.3,1.29 -0.7,1.99 0.9,1.29c1.1,-0.39 2.4,-1.09 3.59,-1.59c6.39,-3.48 3.8,3.78 2.4,6.47c-7.59,13.24 -21.06,31.85 -28.15,41.1c-3.39,4.58 -7.18,9.06 -10.88,12.94c-6.78,6.47 -20.26,17.92 -30.54,21.7c-33.03,12.34 9.09,-43.79 12.58,-48.37c7.78,-9.75 25.25,-26.77 30.54,-35.33c3.79,-6.47 3.59,-11.55 -5.29,-11.55c-6.69,0.2 -18.86,4.88 -24.55,9.26c-1.3,1.29 -0.7,1.99 0.9,1.29c1.09,-0.39 2.39,-1.09 3.59,-1.59c6.39,-3.48 3.79,3.78 2.39,6.47c-7.58,13.24 -21.05,31.85 -28.14,41.1c-5.79,7.77 -12.87,15.53 -18.36,19.91c-2.2,1.79 -0.9,3.48 1.29,1.99c2,-1.29 4.89,-4.18 8.19,-7.56c-5.99,11.94 -10.88,28.76 4.89,30.75c13.47,1.79 29.44,-11.84 39.82,-22c1.1,-1.09 2.4,-2.38 3.69,-3.68c0.3,-0.3 0.6,-0.6 0.9,-0.89c-5.99,11.94 -10.88,28.76 4.89,30.75c17.27,2.39 38.73,-20.8 47.01,-29.36c1.6,-1.59 1.1,-4.38 -1.6,-1.59c-4.89,5.07 -21.46,20.1 -33.43,24.58c-33.04,12.34 9.08,-43.79 12.57,-48.37c7.99,-9.95 25.35,-26.97 30.64,-35.43l0,0z" fill="url(#svg_24)"/>
    </g>
   </g>
  </symbol>
 </defs>
 <g class="layer">
  <title>Layer 1</title>
  <rect fill="#ff0000" height="496" id="svg_23" rx="60" ry="60" stroke="#000000" transform="matrix(1 0 0 1 0 0)" width="496" x="0.8" y="2.2"/>
  <use id="svg_28" transform="matrix(0.923278 0 0 0.923278 -237.83 -338.231)" x="269.23" xlink:href="#svg_27" y="526.36"/>
 </g>
</svg>