<?xml version="1.0"?>
<svg width="512" height="512" xmlns="http://www.w3.org/2000/svg" xmlns:svg="http://www.w3.org/2000/svg" preserveAspectRatio="xMidYMid" version="1.1">
 <g class="layer">
  <title>Layer 1</title>
  <rect fill="#fffbf7" height="505" id="svg_8" rx="70" ry="70" stroke="#000000" stroke-linejoin="round" stroke-width="0" width="519" x="-4.6" y="7.4"/>
  <g id="svg_1">
   <path d="m36.91,284.18l0,-49.86l62.26,0l0,-2.91l-62.26,0l0,-45.49l66.19,0l0,-2.91l-69.1,0l0,104.09l69.69,0l0,-2.91l-66.77,0l0,0zm122.9,-72.02l-25.8,33.97l-25.23,-33.97l-3.79,0l27.26,36.16l-29.89,38.78l3.5,0l28.14,-36.59l28.28,36.59l3.64,0l-30.03,-38.78l27.41,-36.16l-3.5,0l0,0zm14.87,100.6l0,-46.65l0.29,0c1.75,6.8 5.21,12.27 10.35,16.4c5.15,4.13 11.72,6.2 19.69,6.2c5.15,0 9.71,-1.04 13.7,-3.13c3.98,-2.09 7.31,-4.94 9.98,-8.52c2.68,-3.6 4.72,-7.78 6.13,-12.54c1.41,-4.77 2.11,-9.77 2.11,-15.01c0,-5.64 -0.73,-10.84 -2.18,-15.6c-1.46,-4.76 -3.58,-8.9 -6.34,-12.39c-2.77,-3.5 -6.13,-6.22 -10.06,-8.16c-3.94,-1.95 -8.38,-2.92 -13.34,-2.92c-3.8,0 -7.31,0.56 -10.57,1.68c-3.25,1.12 -6.15,2.69 -8.68,4.73c-2.52,2.05 -4.71,4.45 -6.55,7.22c-1.85,2.77 -3.26,5.81 -4.23,9.11l-0.29,0l0,-20.99l-2.91,0l0,100.6l2.91,0l0,0zm30.33,-26.83c-9.13,0 -16.48,-3.13 -22.01,-9.41c-5.54,-6.26 -8.31,-15.28 -8.31,-27.04c0,-4.87 0.68,-9.48 2.04,-13.85c1.36,-4.38 3.33,-8.22 5.91,-11.52c2.57,-3.3 5.76,-5.92 9.55,-7.87c3.8,-1.94 8.07,-2.91 12.84,-2.91c4.86,0 9.11,0.97 12.75,2.91c3.65,1.94 6.66,4.59 9.04,7.94c2.39,3.35 4.18,7.19 5.4,11.51c1.22,4.32 1.82,8.92 1.82,13.78c0,4.37 -0.56,8.71 -1.67,13.05c-1.12,4.32 -2.84,8.21 -5.18,11.66c-2.33,3.45 -5.32,6.26 -8.97,8.45c-3.64,2.19 -8.04,3.28 -13.19,3.28l0,0l0,0zm47.96,1.16l0,-42.42c0,-4.09 0.59,-8.07 1.75,-11.96c1.16,-3.88 2.97,-7.31 5.4,-10.27c2.42,-2.97 5.51,-5.29 9.26,-7c3.74,-1.7 8.18,-2.41 13.34,-2.11l0,-2.92c-4.47,-0.1 -8.38,0.39 -11.73,1.46c-3.35,1.07 -6.25,2.53 -8.67,4.38c-2.43,1.85 -4.38,4.01 -5.84,6.48c-1.46,2.48 -2.53,5.13 -3.2,7.94l-0.3,0l0,-18.51l-2.91,0l0,74.93l2.91,0l0,0zm33.39,-36.88l62.69,0c0.19,-5.15 -0.31,-10.11 -1.53,-14.88c-1.22,-4.76 -3.16,-8.99 -5.83,-12.68c-2.68,-3.69 -6.13,-6.66 -10.35,-8.89c-4.24,-2.24 -9.26,-3.36 -15.09,-3.36c-4.17,0 -8.26,0.88 -12.24,2.63c-3.99,1.75 -7.49,4.31 -10.5,7.66c-3.01,3.35 -5.44,7.46 -7.29,12.32c-1.85,4.86 -2.77,10.4 -2.77,16.62c0,5.54 0.64,10.72 1.9,15.53c1.26,4.8 3.21,8.99 5.83,12.53c2.63,3.55 6,6.3 10.13,8.24c4.13,1.94 9.12,2.87 14.94,2.77c8.56,0 15.75,-2.41 21.58,-7.21c5.83,-4.81 9.28,-11.59 10.35,-20.34l-2.91,0c-1.27,8.27 -4.5,14.46 -9.69,18.59c-5.2,4.13 -11.73,6.19 -19.61,6.19c-5.35,0 -9.87,-0.93 -13.56,-2.77c-3.69,-1.85 -6.7,-4.38 -9.04,-7.58c-2.33,-3.21 -4.05,-6.97 -5.17,-11.3c-1.12,-4.33 -1.72,-9.02 -1.82,-14.07l0,0l0,0zm59.77,-2.91l-59.77,0c0.29,-5.25 1.26,-9.97 2.91,-14.15c1.65,-4.17 3.81,-7.74 6.48,-10.71c2.68,-2.97 5.78,-5.22 9.34,-6.78c3.54,-1.56 7.36,-2.33 11.44,-2.33c4.87,0 9.14,0.89 12.84,2.7c3.69,1.79 6.77,4.25 9.26,7.36c2.48,3.12 4.35,6.73 5.61,10.86c1.27,4.13 1.9,8.49 1.9,13.06l0,0l0,0zm63.41,-12.98l2.92,0c0,-8.36 -2.43,-14.44 -7.29,-18.23c-4.87,-3.79 -11.47,-5.69 -19.83,-5.69c-4.67,0 -8.6,0.59 -11.81,1.75c-3.21,1.17 -5.83,2.68 -7.88,4.52c-2.04,1.85 -3.5,3.88 -4.38,6.13c-0.87,2.23 -1.3,4.37 -1.3,6.41c0,4.08 0.73,7.33 2.18,9.76c1.46,2.43 3.74,4.32 6.86,5.69c2.13,0.97 4.57,1.85 7.29,2.63c2.72,0.77 5.88,1.6 9.48,2.48c3.2,0.78 6.36,1.56 9.48,2.33c3.11,0.78 5.85,1.83 8.23,3.14c2.38,1.31 4.32,2.98 5.83,5.02c1.51,2.05 2.27,4.72 2.27,8.02c0,3.2 -0.75,5.92 -2.27,8.16c-1.5,2.23 -3.42,4.06 -5.76,5.47c-2.33,1.41 -4.93,2.42 -7.8,3.06c-2.87,0.63 -5.66,0.94 -8.38,0.94c-8.85,0 -15.63,-1.97 -20.34,-5.91c-4.72,-3.94 -7.07,-10.13 -7.07,-18.58l-2.92,0c0,9.42 2.56,16.33 7.66,20.7c5.1,4.37 12.66,6.55 22.67,6.55c3.2,0 6.44,-0.36 9.69,-1.09c3.25,-0.73 6.17,-1.92 8.75,-3.57c2.57,-1.65 4.66,-3.79 6.26,-6.41c1.6,-2.63 2.41,-5.83 2.41,-9.62c0,-3.6 -0.71,-6.52 -2.12,-8.75c-1.41,-2.24 -3.25,-4.09 -5.54,-5.54c-2.28,-1.46 -4.86,-2.6 -7.73,-3.43c-2.87,-0.82 -5.76,-1.63 -8.67,-2.41c-4.09,-1.07 -7.66,-1.99 -10.72,-2.76c-3.06,-0.78 -5.91,-1.71 -8.53,-2.77c-2.52,-1.07 -4.54,-2.6 -6.05,-4.59c-1.5,-1.99 -2.26,-4.83 -2.26,-8.52c0,-0.68 0.19,-1.9 0.58,-3.65c0.39,-1.75 1.31,-3.53 2.77,-5.32c1.46,-1.8 3.69,-3.4 6.7,-4.81c3.02,-1.41 7.15,-2.11 12.4,-2.11c3.6,0 6.87,0.39 9.83,1.16c2.97,0.78 5.52,2.01 7.66,3.72c2.13,1.7 3.79,3.86 4.95,6.48c1.17,2.63 1.75,5.84 1.75,9.63l0,0l0,0zm67.51,0l2.91,0c0,-8.36 -2.43,-14.44 -7.29,-18.23c-4.86,-3.79 -11.47,-5.69 -19.83,-5.69c-4.66,0 -8.6,0.59 -11.81,1.75c-3.2,1.17 -5.83,2.68 -7.88,4.52c-2.04,1.85 -3.49,3.88 -4.37,6.13c-0.88,2.23 -1.31,4.37 -1.31,6.41c0,4.08 0.73,7.33 2.19,9.76c1.45,2.43 3.74,4.32 6.85,5.69c2.13,0.97 4.57,1.85 7.29,2.63c2.72,0.77 5.88,1.6 9.48,2.48c3.2,0.78 6.36,1.56 9.48,2.33c3.11,0.78 5.85,1.83 8.23,3.14c2.38,1.31 4.32,2.98 5.84,5.02c1.51,2.05 2.26,4.72 2.26,8.02c0,3.2 -0.75,5.92 -2.26,8.16c-1.51,2.23 -3.43,4.06 -5.77,5.47c-2.33,1.41 -4.93,2.42 -7.8,3.06c-2.87,0.63 -5.66,0.94 -8.38,0.94c-8.85,0 -15.63,-1.97 -20.33,-5.91c-4.72,-3.94 -7.07,-10.13 -7.07,-18.58l-2.92,0c0,9.42 2.55,16.33 7.66,20.7c5.1,4.37 12.66,6.55 22.67,6.55c3.21,0 6.44,-0.36 9.69,-1.09c3.26,-0.73 6.17,-1.92 8.75,-3.57c2.57,-1.65 4.66,-3.79 6.27,-6.41c1.6,-2.63 2.41,-5.83 2.41,-9.62c0,-3.6 -0.71,-6.52 -2.12,-8.75c-1.41,-2.24 -3.25,-4.09 -5.54,-5.54c-2.28,-1.46 -4.86,-2.6 -7.73,-3.43c-2.86,-0.82 -5.76,-1.63 -8.67,-2.41c-4.09,-1.07 -7.66,-1.99 -10.72,-2.76c-3.06,-0.78 -5.9,-1.71 -8.52,-2.77c-2.53,-1.07 -4.55,-2.6 -6.05,-4.59c-1.51,-1.99 -2.26,-4.83 -2.26,-8.52c0,-0.68 0.19,-1.9 0.59,-3.65c0.38,-1.75 1.31,-3.53 2.77,-5.32c1.46,-1.8 3.69,-3.4 6.71,-4.81c3.01,-1.41 7.14,-2.11 12.39,-2.11c3.6,0 6.88,0.39 9.83,1.16c2.97,0.78 5.52,2.01 7.66,3.72c2.13,1.7 3.79,3.86 4.96,6.48c1.16,2.63 1.75,5.84 1.75,9.63l0,0l0,0z" fill="#222222" id="svg_2"/>
  </g>
  <line fill="none" id="svg_3" stroke="#000000" stroke-width="5" x1="27.4" x2="380.45" y1="138" y2="138"/>
  <line fill="none" id="svg_4" stroke="#000000" stroke-width="5" x1="184.4" x2="488.44" y1="356" y2="356"/>
 </g>
</svg>