<?xml version="1.0"?>
<svg width="512" height="512" xmlns="http://www.w3.org/2000/svg" xmlns:svg="http://www.w3.org/2000/svg" preserveAspectRatio="xMidYMid" version="1.1">
 <defs>
  <linearGradient id="linearGradient-1" x1="57.6615627%" x2="57.6615584%" y1="2.04644676%" y2="94.4387516%">
   <stop offset="0%" stop-color="#97D9F6"/>
   <stop offset="92.024499%" stop-color="#0F80CC"/>
   <stop offset="100%" stop-color="#0F80CC"/>
  </linearGradient>
 </defs>
 <g class="layer">
  <title>Layer 1</title>
  <rect fill="#aaffff" height="511" id="svg_6" rx="60" ry="60" stroke="#000000" stroke-linejoin="round" width="511" x="0.4" y="1.6"/>
  <g id="svg_1">
   <g id="svg_7">
    <path d="m198.14,232.88c-6.14,0 -11.14,1.82 -14.96,5.46c-3.83,3.64 -5.77,8.4 -5.77,14.24c0,3.03 0.49,5.79 1.43,8.32c0.95,2.54 2.43,4.88 4.42,7c1.99,2.12 5.97,5.01 11.89,8.67c7.28,4.45 12.05,8.05 14.33,10.87c2.29,2.82 3.42,5.76 3.42,8.83c0,4.11 -1.36,7.4 -4.14,9.87c-2.79,2.48 -6.52,3.7 -11.15,3.7c-4.87,0 -9.12,-1.71 -12.77,-5.13c-3.66,-3.41 -5.49,-7.94 -5.54,-13.6l-2.27,0l0,20.57l2.27,0c0.69,-1.95 1.66,-2.94 2.91,-2.94c0.6,0 2.02,0.41 4.21,1.19c5.36,1.91 9.76,2.83 13.22,2.83c5.96,0 11.04,-2.09 15.28,-6.33c4.23,-4.23 6.37,-9.35 6.37,-15.31c0,-4.63 -1.4,-8.75 -4.18,-12.33c-2.76,-3.6 -8.15,-7.78 -16.2,-12.58c-6.92,-4.16 -11.42,-7.54 -13.49,-10.19c-2.08,-2.64 -3.14,-5.55 -3.14,-8.75c0,-3.47 1.27,-6.24 3.78,-8.32c2.5,-2.07 5.79,-3.11 9.9,-3.11c4.63,0 8.49,1.38 11.54,4.14c3.05,2.77 4.82,6.61 5.33,11.54l2.27,0l0,-17.83l-2.11,0c-0.26,0.91 -0.5,1.49 -0.72,1.75c-0.21,0.26 -0.62,0.4 -1.23,0.4c-0.73,0 -2.03,-0.31 -3.9,-0.91c-3.98,-1.34 -7.64,-2.03 -11.02,-2.03l0,0zm74.13,0c-7.48,0 -14.27,1.76 -20.41,5.29c-6.15,3.53 -11.01,8.42 -14.6,14.65c-3.59,6.23 -5.38,12.85 -5.38,19.9c0,9.47 3.1,17.91 9.35,25.31c6.25,7.39 13.75,11.99 22.44,13.77c1.99,1.04 4.83,3.71 8.56,8.04c4.2,4.88 7.74,8.41 10.66,10.51c2.92,2.1 6.07,3.64 9.39,4.65c3.33,1.01 6.93,1.51 10.83,1.51c4.71,0 8.93,-0.82 12.65,-2.51l-0.84,-2.06c-2.15,0.77 -4.46,1.15 -6.88,1.15c-3.3,0 -6.62,-1.09 -9.95,-3.27c-3.33,-2.18 -7.49,-6.35 -12.46,-12.5c-2.33,-2.94 -3.94,-4.8 -4.85,-5.53c9.52,-1.85 17.34,-6.46 23.44,-13.85c6.1,-7.37 9.16,-15.79 9.16,-25.23c0,-11.21 -3.99,-20.62 -11.9,-28.3c-7.91,-7.67 -17.66,-11.54 -29.21,-11.54l0,0zm46.29,0l0.12,2.43c4.98,0 7.77,1.47 8.39,4.42c0.23,1.05 0.34,3 0.36,5.81l-0.04,53.68c-0.05,4.02 -0.61,6.57 -1.71,7.68c-1.1,1.11 -2.96,1.8 -5.65,2.07l-0.12,2.43l49.66,0l1.27,-12.18l-2.27,0c-0.65,3.32 -2.13,5.7 -4.49,7.05c-2.37,1.36 -6.56,2.03 -12.61,2.03l-4.7,0c-5.45,0 -8.6,-1.97 -9.43,-5.92c-0.17,-0.78 -0.23,-1.63 -0.24,-2.55l0.2,-54.28c0,-4.01 0.5,-6.69 1.56,-8c1.05,-1.31 2.96,-2.04 5.73,-2.23l-0.12,-2.43l-25.9,0l0,0zm-45.49,2.94c8.44,0 15.32,3.33 20.65,10.03c5.32,6.71 7.95,15.9 7.95,27.54c0,11.03 -2.67,19.86 -8.03,26.51c-5.37,6.64 -12.51,9.94 -21.37,9.94c-8.52,0 -15.43,-3.4 -20.74,-10.26c-5.29,-6.85 -7.91,-15.76 -7.91,-26.7c0,-11.25 2.66,-20.25 8,-26.97c5.35,-6.73 12.5,-10.07 21.46,-10.07l0,0zm114.21,11.54c-1.22,0 -2.13,0.41 -2.83,1.23c-0.71,0.83 -0.93,1.82 -0.68,3.03c0.23,1.17 0.9,2.2 1.94,3.07c1.04,0.86 2.17,1.31 3.39,1.31c1.17,0 2.06,-0.44 2.71,-1.31c0.64,-0.87 0.84,-1.9 0.59,-3.07c-0.25,-1.21 -0.88,-2.2 -1.87,-3.03c-1,-0.82 -2.09,-1.23 -3.26,-1.23l0,0zm32.75,8.24c-2.05,7.92 -6.52,12.2 -13.37,12.89l0.08,2.27l8,0l-0.15,26.82c0.01,4.58 0.15,7.64 0.48,9.19c0.78,3.72 3.21,5.61 7.28,5.61c5.88,0 12.05,-3.58 18.5,-10.74l-1.95,-1.67c-4.65,4.72 -8.78,7.09 -12.37,7.09c-2.21,0 -3.58,-1.27 -4.11,-3.78c-0.14,-0.6 -0.2,-1.32 -0.2,-2.14l0.08,-30.37l12.22,0l-0.12,-3.62l-12.06,0l0,-11.54l-2.31,0l0,0zm47.24,10.11c-6.83,0 -12.4,3.31 -16.72,9.9c-4.29,6.61 -5.63,13.92 -3.93,21.97c0.99,4.72 2.97,8.37 6.01,10.95c3.03,2.57 6.87,3.85 11.46,3.85c4.28,0 10.23,-1.08 12.73,-3.26c2.51,-2.18 4.83,-5.71 6.97,-10.54l-1.71,-1.79c-3.41,6.28 -10.29,9.43 -15.48,9.43c-7.14,0 -11.51,-3.91 -13.14,-11.7c-0.22,-1 -0.37,-2.06 -0.48,-3.19c8.49,-1.34 14.92,-3.72 19.26,-7.16c4.34,-3.45 8.7,-7.09 7.88,-10.95c-0.48,-2.29 -1.67,-4.09 -3.5,-5.45c-1.85,-1.36 -6.66,-2.07 -9.35,-2.07l0,0zm-74.69,0.28l-14.73,3.38l0,2.63l5.1,-0.64c2.47,0 3.92,1.13 4.38,3.35c0.15,0.74 0.25,1.79 0.28,3.1l-0.16,24.08c-0.04,3.33 -0.41,5.27 -1.15,5.84c-0.75,0.59 -2.73,0.87 -5.92,0.87l-0.08,2.27l23.36,0l-0.04,-2.27c-3.25,0 -5.35,-0.25 -6.29,-0.76c-0.92,-0.5 -1.55,-1.4 -1.83,-2.78c-0.21,-1 -0.31,-2.72 -0.32,-5.1l0.08,-33.98l-2.67,0l0,0zm70.95,4.46c1.42,0 2.8,0.55 4.18,1.63c1.37,1.08 2.2,2.28 2.47,3.58c1.33,6.4 -4.34,10.82 -17.11,13.29c-0.37,-4.66 0.44,-8.9 2.5,-12.73c2.05,-3.83 4.72,-5.77 7.96,-5.77l0,0z" fill="#003B57" id="svg_2"/>
    <path d="m165.16,140.96l-126.71,0c-8.49,0 -15.44,6.95 -15.44,15.44l0,139.74c0,8.49 6.95,15.44 15.44,15.44l83.45,0c-0.95,-41.52 13.24,-122.11 43.26,-170.62l0,0z" fill="#0F80CC" id="svg_3"/>
    <path d="m160.55,145.47l-122.11,0c-6.03,0 -10.94,4.9 -10.94,10.93l0,129.55c27.66,-10.62 69.16,-19.77 97.87,-19.36c5.76,-30.16 22.72,-89.26 35.18,-121.12l0,0z" fill="url(#linearGradient-1)" id="svg_4"/>
    <path d="m194.71,136.38c-8.68,-7.73 -19.19,-4.63 -29.56,4.57c-1.54,1.37 -3.08,2.89 -4.61,4.51c-17.74,18.82 -34.2,53.68 -39.32,80.29c1.99,4.04 3.55,9.2 4.57,13.15c0.26,1.01 0.5,1.95 0.69,2.76c0.45,1.91 0.68,3.15 0.68,3.15c0,0 -0.15,-0.6 -0.81,-2.49c-0.12,-0.37 -0.26,-0.77 -0.42,-1.22c-0.07,-0.2 -0.17,-0.43 -0.27,-0.68c-1.16,-2.68 -4.37,-8.36 -5.77,-10.84c-1.21,3.56 -2.27,6.89 -3.16,9.89c4.07,7.44 6.55,20.19 6.55,20.19c0,0 -0.22,-0.83 -1.24,-3.72c-0.9,-2.55 -5.42,-10.46 -6.49,-12.32c-1.83,6.76 -2.56,11.33 -1.9,12.43c1.27,2.15 2.48,5.87 3.55,9.98c2.4,9.26 4.08,20.53 4.08,20.53c0,0 0.05,0.75 0.14,1.89c-0.33,7.78 -0.13,15.84 0.47,23.12c0.8,9.64 2.3,17.93 4.21,22.36l1.3,-0.7c-2.81,-8.73 -3.94,-20.19 -3.45,-33.38c0.76,-20.18 5.4,-44.51 13.98,-69.88c14.5,-38.28 34.6,-69 53.01,-83.67c-16.78,15.15 -39.49,64.19 -46.28,82.35c-7.62,20.33 -13.01,39.42 -16.26,57.7c5.61,-17.14 23.74,-24.51 23.74,-24.51c0,0 8.9,-10.98 19.29,-26.64c-6.22,1.42 -16.45,3.85 -19.87,5.29c-5.05,2.12 -6.41,2.84 -6.41,2.84c0,0 16.36,-9.96 30.4,-14.47c19.3,-30.4 40.34,-73.59 19.16,-92.49" fill="#003B57" id="svg_5"/>
   </g>
  </g>
 </g>
</svg>